<svg width="184" height="31" viewBox="0 0 184 31" fill="none" xmlns="http://www.w3.org/2000/svg">
<path d="M12.5221 2.09V4.31H3.43209V11.36H10.8121V13.58H3.43209V23H0.70209V2.09H12.5221ZM17.2293 3.89C16.7093 3.89 16.2693 3.71 15.9093 3.35C15.5493 2.99 15.3693 2.55 15.3693 2.03C15.3693 1.51 15.5493 1.07 15.9093 0.709999C16.2693 0.349999 16.7093 0.169999 17.2293 0.169999C17.7293 0.169999 18.1493 0.349999 18.4893 0.709999C18.8493 1.07 19.0293 1.51 19.0293 2.03C19.0293 2.55 18.8493 2.99 18.4893 3.35C18.1493 3.71 17.7293 3.89 17.2293 3.89ZM18.5493 6.56V23H15.8193V6.56H18.5493ZM31.2121 6.26C33.2121 6.26 34.8321 6.87 36.0721 8.09C37.3121 9.29 37.9321 11.03 37.9321 13.31V23H35.2321V13.7C35.2321 12.06 34.8221 10.81 34.0021 9.95C33.1821 9.07 32.0621 8.63 30.6421 8.63C29.2021 8.63 28.0521 9.08 27.1921 9.98C26.3521 10.88 25.9321 12.19 25.9321 13.91V23H23.2021V6.56H25.9321V8.9C26.4721 8.06 27.2021 7.41 28.1221 6.95C29.0621 6.49 30.0921 6.26 31.2121 6.26ZM41.3715 14.72C41.3715 13.04 41.7115 11.57 42.3915 10.31C43.0715 9.03 44.0015 8.04 45.1815 7.34C46.3815 6.64 47.7115 6.29 49.1715 6.29C50.6115 6.29 51.8615 6.6 52.9215 7.22C53.9815 7.84 54.7715 8.62 55.2915 9.56V6.56H58.0515V23H55.2915V19.94C54.7515 20.9 53.9415 21.7 52.8615 22.34C51.8015 22.96 50.5615 23.27 49.1415 23.27C47.6815 23.27 46.3615 22.91 45.1815 22.19C44.0015 21.47 43.0715 20.46 42.3915 19.16C41.7115 17.86 41.3715 16.38 41.3715 14.72ZM55.2915 14.75C55.2915 13.51 55.0415 12.43 54.5415 11.51C54.0415 10.59 53.3615 9.89 52.5015 9.41C51.6615 8.91 50.7315 8.66 49.7115 8.66C48.6915 8.66 47.7615 8.9 46.9215 9.38C46.0815 9.86 45.4115 10.56 44.9115 11.48C44.4115 12.4 44.1615 13.48 44.1615 14.72C44.1615 15.98 44.4115 17.08 44.9115 18.02C45.4115 18.94 46.0815 19.65 46.9215 20.15C47.7615 20.63 48.6915 20.87 49.7115 20.87C50.7315 20.87 51.6615 20.63 52.5015 20.15C53.3615 19.65 54.0415 18.94 54.5415 18.02C55.0415 17.08 55.2915 15.99 55.2915 14.75ZM70.675 6.26C72.675 6.26 74.295 6.87 75.535 8.09C76.775 9.29 77.395 11.03 77.395 13.31V23H74.695V13.7C74.695 12.06 74.285 10.81 73.465 9.95C72.645 9.07 71.525 8.63 70.105 8.63C68.665 8.63 67.515 9.08 66.655 9.98C65.815 10.88 65.395 12.19 65.395 13.91V23H62.665V6.56H65.395V8.9C65.935 8.06 66.665 7.41 67.585 6.95C68.525 6.49 69.555 6.26 70.675 6.26ZM80.8344 14.75C80.8344 13.05 81.1744 11.57 81.8544 10.31C82.5344 9.03 83.4744 8.04 84.6744 7.34C85.8944 6.64 87.2844 6.29 88.8444 6.29C90.8644 6.29 92.5244 6.78 93.8244 7.76C95.1444 8.74 96.0144 10.1 96.4344 11.84H93.4944C93.2144 10.84 92.6644 10.05 91.8444 9.47C91.0444 8.89 90.0444 8.6 88.8444 8.6C87.2844 8.6 86.0244 9.14 85.0644 10.22C84.1044 11.28 83.6244 12.79 83.6244 14.75C83.6244 16.73 84.1044 18.26 85.0644 19.34C86.0244 20.42 87.2844 20.96 88.8444 20.96C90.0444 20.96 91.0444 20.68 91.8444 20.12C92.6444 19.56 93.1944 18.76 93.4944 17.72H96.4344C95.9944 19.4 95.1144 20.75 93.7944 21.77C92.4744 22.77 90.8244 23.27 88.8444 23.27C87.2844 23.27 85.8944 22.92 84.6744 22.22C83.4744 21.52 82.5344 20.53 81.8544 19.25C81.1744 17.97 80.8344 16.47 80.8344 14.75ZM115.077 14.15C115.077 14.67 115.047 15.22 114.987 15.8H101.847C101.947 17.42 102.497 18.69 103.497 19.61C104.517 20.51 105.747 20.96 107.187 20.96C108.367 20.96 109.347 20.69 110.127 20.15C110.927 19.59 111.487 18.85 111.807 17.93H114.747C114.307 19.51 113.427 20.8 112.107 21.8C110.787 22.78 109.147 23.27 107.187 23.27C105.627 23.27 104.227 22.92 102.987 22.22C101.767 21.52 100.807 20.53 100.107 19.25C99.4071 17.95 99.0571 16.45 99.0571 14.75C99.0571 13.05 99.3971 11.56 100.077 10.28C100.757 9 101.707 8.02 102.927 7.34C104.167 6.64 105.587 6.29 107.187 6.29C108.747 6.29 110.127 6.63 111.327 7.31C112.527 7.99 113.447 8.93 114.087 10.13C114.747 11.31 115.077 12.65 115.077 14.15ZM112.257 13.58C112.257 12.54 112.027 11.65 111.567 10.91C111.107 10.15 110.477 9.58 109.677 9.2C108.897 8.8 108.027 8.6 107.067 8.6C105.687 8.6 104.507 9.04 103.527 9.92C102.567 10.8 102.017 12.02 101.877 13.58H112.257ZM139.039 18.35H129.919L128.239 23H125.359L132.919 2.21H136.069L143.599 23H140.719L139.039 18.35ZM138.259 16.13L134.479 5.57L130.699 16.13H138.259ZM149.623 9.59C150.163 8.65 150.963 7.87 152.023 7.25C153.103 6.61 154.353 6.29 155.773 6.29C157.233 6.29 158.553 6.64 159.733 7.34C160.933 8.04 161.873 9.03 162.553 10.31C163.233 11.57 163.573 13.04 163.573 14.72C163.573 16.38 163.233 17.86 162.553 19.16C161.873 20.46 160.933 21.47 159.733 22.19C158.553 22.91 157.233 23.27 155.773 23.27C154.373 23.27 153.133 22.96 152.053 22.34C150.993 21.7 150.183 20.91 149.623 19.97V30.8H146.893V6.56H149.623V9.59ZM160.783 14.72C160.783 13.48 160.533 12.4 160.033 11.48C159.533 10.56 158.853 9.86 157.993 9.38C157.153 8.9 156.223 8.66 155.203 8.66C154.203 8.66 153.273 8.91 152.413 9.41C151.573 9.89 150.893 10.6 150.373 11.54C149.873 12.46 149.623 13.53 149.623 14.75C149.623 15.99 149.873 17.08 150.373 18.02C150.893 18.94 151.573 19.65 152.413 20.15C153.273 20.63 154.203 20.87 155.203 20.87C156.223 20.87 157.153 20.63 157.993 20.15C158.853 19.65 159.533 18.94 160.033 18.02C160.533 17.08 160.783 15.98 160.783 14.72ZM169.897 9.59C170.437 8.65 171.237 7.87 172.297 7.25C173.377 6.61 174.627 6.29 176.047 6.29C177.507 6.29 178.827 6.64 180.007 7.34C181.207 8.04 182.147 9.03 182.827 10.31C183.507 11.57 183.847 13.04 183.847 14.72C183.847 16.38 183.507 17.86 182.827 19.16C182.147 20.46 181.207 21.47 180.007 22.19C178.827 22.91 177.507 23.27 176.047 23.27C174.647 23.27 173.407 22.96 172.327 22.34C171.267 21.7 170.457 20.91 169.897 19.97V30.8H167.167V6.56H169.897V9.59ZM181.057 14.72C181.057 13.48 180.807 12.4 180.307 11.48C179.807 10.56 179.127 9.86 178.267 9.38C177.427 8.9 176.497 8.66 175.477 8.66C174.477 8.66 173.547 8.91 172.687 9.41C171.847 9.89 171.167 10.6 170.647 11.54C170.147 12.46 169.897 13.53 169.897 14.75C169.897 15.99 170.147 17.08 170.647 18.02C171.167 18.94 171.847 19.65 172.687 20.15C173.547 20.63 174.477 20.87 175.477 20.87C176.497 20.87 177.427 20.63 178.267 20.15C179.127 19.65 179.807 18.94 180.307 18.02C180.807 17.08 181.057 15.98 181.057 14.72Z" fill="black"/>
</svg>
